<svg xmlns="http://www.w3.org/2000/svg" xmlns:xlink="http://www.w3.org/1999/xlink" width="1750" zoomAndPan="magnify" viewBox="0 0 1312.5 374.999991" height="500" preserveAspectRatio="xMidYMid meet" version="1.0"><defs><g/><clipPath id="45adae6631"><path d="M 44.59375 192 L 127 192 L 127 374.925781 L 44.59375 374.925781 Z M 44.59375 192 " clip-rule="nonzero"/></clipPath><clipPath id="febe39a77d"><path d="M 149 97 L 291.34375 97 L 291.34375 275 L 149 275 Z M 149 97 " clip-rule="nonzero"/></clipPath><clipPath id="54e98a8583"><path d="M 209 49 L 291.34375 49 L 291.34375 145 L 209 145 Z M 209 49 " clip-rule="nonzero"/></clipPath><clipPath id="aa44a6793a"><path d="M 44.59375 2.4375 L 210 2.4375 L 210 145 L 44.59375 145 Z M 44.59375 2.4375 " clip-rule="nonzero"/></clipPath></defs><g clip-path="url(#45adae6631)"><path fill="#e86840" d="M 51.011719 331.363281 L 126.835938 375.1875 L 126.835938 192.515625 L 44.605469 240.042969 L 44.605469 327.660156 Z M 51.011719 331.363281 " fill-opacity="1" fill-rule="evenodd"/></g><g clip-path="url(#febe39a77d)"><path fill="#e86840" d="M 149.097656 179.65625 L 149.097656 274.679688 L 209.070312 240.042969 L 291.335938 192.515625 L 291.335938 97.460938 L 209.070312 144.988281 Z M 149.097656 179.65625 " fill-opacity="1" fill-rule="evenodd"/></g><g clip-path="url(#54e98a8583)"><path fill="#e86840" d="M 209.070312 144.988281 L 291.335938 97.460938 L 209.070312 49.964844 Z M 209.070312 144.988281 " fill-opacity="1" fill-rule="evenodd"/></g><g clip-path="url(#aa44a6793a)"><path fill="#e86840" d="M 126.835938 97.460938 L 209.070312 49.964844 L 126.835938 2.4375 L 44.605469 49.964844 L 44.605469 144.988281 Z M 126.835938 97.460938 " fill-opacity="1" fill-rule="evenodd"/></g><g fill="#1f2937" fill-opacity="1"><g transform="translate(399.541586, 257.31928)"><g><path d="M 16.972656 -139.113281 L 16.972656 69.558594 L 70.949219 69.558594 L 70.949219 -10.574219 C 79.574219 -1.390625 90.148438 2.78125 103.78125 2.78125 C 138.558594 2.78125 163.320312 -21.144531 163.320312 -69.558594 C 163.320312 -119.917969 138.003906 -141.898438 105.726562 -141.898438 C 87.363281 -141.898438 74.566406 -134.941406 66.21875 -120.472656 L 66.21875 -139.113281 Z M 70.113281 -69.558594 C 70.113281 -85.972656 78.183594 -95.433594 90.148438 -95.433594 C 102.945312 -95.433594 109.902344 -85.972656 109.902344 -69.558594 C 109.902344 -51.75 101.832031 -43.683594 89.867188 -43.683594 C 78.183594 -43.683594 70.113281 -52.308594 70.113281 -69.558594 Z M 70.113281 -69.558594 "/></g></g></g><g fill="#1f2937" fill-opacity="1"><g transform="translate(572.878739, 257.31928)"><g><path d="M 16.972656 -139.113281 L 16.972656 0 L 71.226562 0 L 71.226562 -67.332031 C 71.226562 -82.078125 80.964844 -92.652344 95.433594 -92.652344 L 111.292969 -92.652344 L 111.292969 -141.621094 L 104.335938 -141.621094 C 87.085938 -141.621094 72.894531 -132.714844 65.664062 -116.300781 L 65.664062 -139.113281 Z M 16.972656 -139.113281 "/></g></g></g><g fill="#1f2937" fill-opacity="1"><g transform="translate(692.517556, 257.31928)"><g><path d="M 16.972656 -139.113281 L 16.972656 0 L 70.949219 0 L 70.949219 -139.113281 Z M 43.960938 -215.351562 C 25.597656 -215.351562 13.078125 -203.664062 13.078125 -186.972656 C 13.078125 -170.277344 25.597656 -158.589844 43.960938 -158.589844 C 62.601562 -158.589844 74.84375 -170.277344 74.84375 -186.972656 C 74.84375 -203.664062 62.601562 -215.351562 43.960938 -215.351562 Z M 43.960938 -215.351562 "/></g></g></g><g fill="#1f2937" fill-opacity="1"><g transform="translate(780.716386, 257.31928)"><g><path d="M 148.574219 -80.410156 C 146.070312 -116.023438 122.144531 -141.898438 80.964844 -141.898438 C 37.5625 -141.898438 10.015625 -112.125 10.015625 -69.558594 C 10.015625 -25.039062 35.613281 2.78125 80.6875 2.78125 C 122.699219 2.78125 146.90625 -20.867188 149.132812 -58.429688 L 97.9375 -58.429688 C 97.101562 -48.96875 90.980469 -43.683594 81.519531 -43.683594 C 70.671875 -43.683594 63.160156 -52.308594 63.160156 -69.558594 C 63.160156 -85.695312 69.558594 -95.15625 81.800781 -95.15625 C 91.539062 -95.15625 96.824219 -89.035156 97.660156 -80.410156 Z M 148.574219 -80.410156 "/></g></g></g><g fill="#1f2937" fill-opacity="1"><g transform="translate(939.029105, 257.31928)"><g><path d="M 152.191406 -56.203125 L 152.191406 -70.949219 C 152.191406 -113.238281 126.871094 -141.898438 82.078125 -141.898438 C 38.117188 -141.898438 10.015625 -112.40625 10.015625 -69.558594 C 10.015625 -23.929688 37.28125 2.78125 81.519531 2.78125 C 117.414062 2.78125 142.453125 -11.40625 151.078125 -42.011719 L 99.050781 -46.742188 C 96.824219 -41.179688 91.539062 -37.28125 82.632812 -37.28125 C 71.503906 -37.28125 63.992188 -44.515625 63.714844 -56.203125 Z M 64.269531 -84.859375 C 65.105469 -94.597656 71.503906 -101.554688 82.078125 -101.554688 C 92.371094 -101.554688 98.214844 -94.597656 98.492188 -84.859375 Z M 64.269531 -84.859375 "/></g></g></g><g fill="#1f2937" fill-opacity="1"><g transform="translate(1103.462838, 257.31928)"><g><path d="M 152.191406 -56.203125 L 152.191406 -70.949219 C 152.191406 -113.238281 126.871094 -141.898438 82.078125 -141.898438 C 38.117188 -141.898438 10.015625 -112.40625 10.015625 -69.558594 C 10.015625 -23.929688 37.28125 2.78125 81.519531 2.78125 C 117.414062 2.78125 142.453125 -11.40625 151.078125 -42.011719 L 99.050781 -46.742188 C 96.824219 -41.179688 91.539062 -37.28125 82.632812 -37.28125 C 71.503906 -37.28125 63.992188 -44.515625 63.714844 -56.203125 Z M 64.269531 -84.859375 C 65.105469 -94.597656 71.503906 -101.554688 82.078125 -101.554688 C 92.371094 -101.554688 98.214844 -94.597656 98.492188 -84.859375 Z M 64.269531 -84.859375 "/></g></g></g></svg>